<?xml version="1.0" encoding="UTF-8"?>
<svg version="1.1"
     xmlns="http://www.w3.org/2000/svg"
     viewBox="0 0 70.7969 70.7969">
 <g>
  <!-- Transparent canvas -->
  <rect x="0" y="0" width="70.7969" height="70.7969" opacity="0"/>

  <!-- Up arrow -->
  <g transform="translate(11.10695,-30)">
    <path d="M15.4307 41.9795C15.9023 41.9795 16.4189 41.7773 16.7559 41.418L19.1816 38.9473L23.8984 34.0957L24.4824 34.0957L29.2217 38.9473L31.625 41.418C31.9619 41.7773 32.4561 41.9795 32.9727 41.9795C33.9609 41.9795 34.7246 41.2607 34.7246 40.25C34.7246 39.6436 34.4551 39.2168 34.0283 38.835L25.583 30.9062C25.0889 30.457 24.7295 30.2773 24.1904 30.2773C23.6963 30.2773 23.3145 30.457 22.7979 30.9062L14.3525 38.835C13.9482 39.2168 13.6787 39.6436 13.6787 40.25C13.6787 41.2607 14.4199 41.9795 15.4307 41.9795ZM24.1904 53.9961C25.2236 53.9961 26.0996 53.165 26.0996 52.1543L26.0996 40.6543L25.8301 33.624C25.7402 31.4902 22.6406 31.4902 22.5508 33.624L22.3037 40.6543L22.3037 52.1543C22.3037 53.165 23.1797 53.9961 24.1904 53.9961Z" fill="white" fill-opacity="0.85"/>
  </g>

  <!-- Server icon (original, shifted down) -->
  <g transform="translate(0,30)">
    <path
      d="M56.8037 23.8984C58.7354 23.8535 60.3525 22.2588 60.3525 20.3271C60.3525 18.3506 58.7354 16.7109 56.8037 16.7109C54.8721 16.7109 53.21 18.3506 53.21 20.3271C53.21 22.2588 54.8721 23.9434 56.8037 23.8984ZM8.7373 33.3096L61.7002 33.3096C67.4951 33.3096 70.4375 30.3672 70.4375 24.6621L70.4375 8.64746C70.4375 2.94238 67.4951 0 61.7002 0L8.7373 0C2.91992 0 0 2.91992 0 8.64746L0 24.6621C0 30.4121 2.91992 33.3096 8.7373 33.3096ZM8.82715 29.334C5.68262 29.334 3.97559 27.6719 3.97559 24.4375L3.97559 8.87207C3.97559 5.6377 5.68262 3.97559 8.82715 3.97559L61.6104 3.97559C64.6875 3.97559 66.4619 5.6377 66.4619 8.87207L66.4619 24.4375C66.4619 27.6719 64.6875 29.334 61.6104 29.334ZM68.124 12.1963L68.124 8.89453L2.33594 8.89453L2.33594 12.1963Z"
      fill="white"
      fill-opacity="0.85"/>
  </g>

 </g>
</svg>