<?xml version="1.0" encoding="UTF-8"?>
<svg version="1.1" xmlns="http://www.w3.org/2000/svg" xmlns:xlink="http://www.w3.org/1999/xlink" viewBox="0 0 71.2544 71.2544">
 <g>
  <rect height="71.2544" opacity="0" width="71.2544" x="0" y="0"/>
  <g transform="translate(6.23705,0)">
    <path d="M54.8496 15.9851L54.8496 59.7166C54.8496 65.534 51.9297 68.4763 46.1797 68.4763L25.0679 68.4763C30.5217 67.8635 36.1416 66.9006 42.2041 65.3543C47.752 63.8943 50.5596 60.3679 50.5596 54.0564L50.5596 10.572C50.5596 9.63938 50.4833 8.76043 50.3324 7.94208C53.3355 9.10932 54.8496 11.796 54.8496 15.9851Z" fill="white" fill-opacity="0.85"/>
    <path d="M3.57129 59.0203C3.57129 63.6697 6.49121 66.1629 11.4551 65.9158C21.2031 65.5115 30.4795 64.6355 41.2832 61.9177C45.2588 60.8845 46.9658 58.7732 46.9658 54.0564L46.9658 10.572C46.9658 5.31618 44.001 2.68826 38.8799 3.83376C30.4795 5.58572 21.2031 6.95583 10.9834 7.42751C6.46875 7.65212 3.57129 10.1902 3.57129 15.0642ZM7.56934 58.3465L7.56934 15.0193C7.56934 12.5037 9.09668 11.4256 11.4102 11.3357C21.293 10.9314 30.3896 9.5613 38.6777 7.83181C41.3506 7.27029 42.9902 8.61794 42.9902 11.2459L42.9902 53.8992C42.9902 56.572 41.957 57.7849 39.6436 58.3465C30.3896 60.6599 21.293 61.5584 11.6123 61.9177C9.09668 62.0076 7.56934 60.7049 7.56934 58.3465Z" fill="white" fill-opacity="0.85"/>
    <path d="M15.9922 51.4959C18.1035 51.2263 21.4053 49.1375 21.4053 44.9373L21.4053 31.4383C21.4053 30.7644 21.4727 30.6521 22.0566 30.45L33.624 26.4744C34.2754 26.2722 34.5225 26.3621 34.5225 26.9236L34.6123 35.9754C34.6123 36.6267 34.2529 37.0984 33.6465 37.323L31.4902 38.0867C28.5479 39.1424 27.0879 40.7371 27.0879 42.9607C27.0879 45.2068 28.8623 46.5545 31.3555 46.2176C33.4668 45.9256 36.6787 43.9939 36.6787 39.7488L36.6787 19.6687C36.6787 18.2088 35.9824 17.8269 34.3428 18.4334L20.6865 23.1277C19.6758 23.4646 19.1367 24.116 19.1367 24.992L19.2041 41.2537C19.2041 41.9051 18.9346 42.3093 18.3955 42.5115L16.127 43.2527C13.2295 44.241 11.8145 45.9031 11.8145 48.2166C11.8145 50.4627 13.5439 51.8103 15.9922 51.4959Z" fill="white" fill-opacity="0.85"/>
  </g>
 </g>
</svg>